<svg xmlns="http://www.w3.org/2000/svg" width="10.64" height="13.675" viewBox="0 0 10.64 13.675"><g transform="translate(0.001)" opacity="0.891"><path d="M126.29.825h2.285V1.21h.825V.772A.772.772,0,0,0,128.63,0h-2.394a.772.772,0,0,0-.771.772V1.21h.825Zm0,0" transform="translate(-122.113)" fill="#123250"/><path d="M48.6,167.75H40.854a.363.363,0,0,0-.362.393l.648,8.01a.86.86,0,0,0,.857.792H47.46a.86.86,0,0,0,.857-.792l.648-8.01a.363.363,0,0,0-.365-.393Zm-5.872,8.34H42.7a.413.413,0,0,1-.411-.387l-.406-6.576a.413.413,0,1,1,.824-.051l.406,6.576a.413.413,0,0,1-.383.438Zm2.415-.412a.413.413,0,0,1-.825,0V169.1a.413.413,0,0,1,.825,0Zm2.424-6.552-.388,6.576a.413.413,0,0,1-.412.388h-.025a.413.413,0,0,1-.388-.436l.387-6.576a.413.413,0,0,1,.824.049Zm0,0" transform="translate(-39.408 -163.27)" fill="#123250"/><path d="M10.621,77.382l-.271-.813a.525.525,0,0,0-.5-.359H.787a.525.525,0,0,0-.5.359l-.271.813a.341.341,0,0,0,.323.448H10.3a.336.336,0,0,0,.18-.052.34.34,0,0,0,.141-.4Zm0,0" transform="translate(0 -74.175)" fill="#123250"/></g></svg>