<svg xmlns="http://www.w3.org/2000/svg" width="13.674" height="13.674" viewBox="0 0 13.674 13.674"><g transform="translate(0 -0.501)"><path d="M10.825,90.375a.569.569,0,0,0-.569.57V95.5a.57.57,0,0,1-.57.57H1.709a.57.57,0,0,1-.57-.57V87.526a.57.57,0,0,1,.57-.569H6.268a.57.57,0,0,0,0-1.139H1.709A1.709,1.709,0,0,0,0,87.526V95.5a1.709,1.709,0,0,0,1.709,1.709H9.686A1.709,1.709,0,0,0,11.4,95.5V90.945a.569.569,0,0,0-.57-.57Zm0,0" transform="translate(0 -83.037)" fill="#123250"/><path d="M182.29,72.772a.289.289,0,0,0-.078.147l-.4,2.015a.285.285,0,0,0,.28.342.271.271,0,0,0,.056-.006l2.014-.4a.284.284,0,0,0,.147-.078l4.508-4.508L186.8,68.266Zm0,0" transform="translate(-176.95 -65.953)" fill="#123250"/><path d="M394.248.917a1.425,1.425,0,0,0-2.014,0l-.788.788L393.46,3.72l.788-.789a1.424,1.424,0,0,0,0-2.014Zm0,0" transform="translate(-380.991)" fill="#123250"/></g></svg>